<svg xmlns="http://www.w3.org/2000/svg" viewBox="0 0 574 288"><g fill="none" stroke-width="2"><path stroke="#93ceed" d="M182.36 57.39a9.57 9.57 0 0 0-9.57-9.57h-1.22a9.57 9.57 0 0 0-9.57 9.57v96.48a9.57 9.57 0 0 0 9.57 9.57h1.22a9.57 9.57 0 0 0 9.57-9.57V57.39" vector-effect="non-scaling-stroke"/><path stroke="#91c6e7" d="M407 57.62a9.84 9.84 0 0 0-9.84-9.84h-.82a9.84 9.84 0 0 0-9.84 9.84v96.02a9.84 9.84 0 0 0 9.84 9.84h.82a9.84 9.84 0 0 0 9.84-9.84V57.62" vector-effect="non-scaling-stroke"/><path stroke="#93ceed" d="M126.24 92.17a9.7 9.7 0 0 0-9.7-9.7h-1.1a9.7 9.7 0 0 0-9.7 9.7v43.32a9.7 9.7 0 0 0 9.7 9.7h1.1a9.7 9.7 0 0 0 9.7-9.7V92.17m112.26-.02a9.69 9.69 0 0 0-9.69-9.69h-1.12a9.69 9.69 0 0 0-9.69 9.69v43.34a9.69 9.69 0 0 0 9.69 9.69h1.12a9.69 9.69 0 0 0 9.69-9.69V92.15" vector-effect="non-scaling-stroke"/><path stroke="#91c6e7" d="M350.702 91.972a9.48 9.48 0 0 0-9.497-9.463l-1.38.002a9.48 9.48 0 0 0-9.463 9.497l.076 43.66a9.48 9.48 0 0 0 9.497 9.463l1.38-.002a9.48 9.48 0 0 0 9.463-9.497l-.076-43.66m112.488.168a9.63 9.63 0 0 0-9.63-9.63h-1.36a9.63 9.63 0 0 0-9.63 9.63v43.38a9.63 9.63 0 0 0 9.63 9.63h1.36a9.63 9.63 0 0 0 9.63-9.63V92.14" vector-effect="non-scaling-stroke"/><path stroke="#93ceed" d="M70.176 117.398a9.76 9.76 0 0 0-9.743-9.777l-1.1-.002a9.76 9.76 0 0 0-9.777 9.743l-.032 18.02a9.76 9.76 0 0 0 9.743 9.777l1.1.002a9.76 9.76 0 0 0 9.777-9.743l.032-18.02" vector-effect="non-scaling-stroke"/><path stroke="#91c6e7" d="M294.49 117.18a9.59 9.59 0 0 0-9.59-9.59h-1.04a9.59 9.59 0 0 0-9.59 9.59v18.44a9.59 9.59 0 0 0 9.59 9.59h1.04a9.59 9.59 0 0 0 9.59-9.59v-18.44" vector-effect="non-scaling-stroke"/><path stroke="#8ebfe1" d="M519.216 117.308a9.67 9.67 0 0 0-9.653-9.687l-1.08-.002a9.67 9.67 0 0 0-9.687 9.653l-.032 18.22a9.67 9.67 0 0 0 9.653 9.687l1.08.002a9.67 9.67 0 0 0 9.687-9.653l.032-18.22" vector-effect="non-scaling-stroke"/><path stroke="#93ceed" d="M153.27 248.32c-12.94 5.59-32.98 5.82-38.22-10.72q-1.76-5.56.17-11.11c5.73-16.42 25.64-15.55 38.53-10.17a.37.36-79.1 0 0 .5-.34v-18.44a.66.66 0 0 0-.47-.63c-16.38-4.73-36.28-3.34-49.2 7.91-20.26 17.63-15.42 49.02 8.65 60.51 12.64 6.03 26.76 6.12 40.13 2.61a1.19 1.19 0 0 0 .89-1.15v-17.83a.7.7 0 0 0-.98-.64" vector-effect="non-scaling-stroke"/><path stroke="#91c6e7" d="M262.93 251.44c-7.42 5.07-22.58 2-31.66.17a.44.44 0 0 0-.52.43v15.58a.62.6-84.2 0 0 .48.6c13.89 2.89 31.11 3.84 43.97-3.01 9.96-5.31 14.69-17.62 9.64-27.84-5.28-10.68-18.38-12.78-28.32-16.05q-4.86-1.6-3.96-6.76a1.55 1.54-16.7 0 1 .46-.85c6.26-5.81 20.07-3.51 27.66-1.51a.45.44-82.5 0 0 .56-.43l.01-14.43a.62.62 0 0 0-.46-.6c-12.93-3.38-32.8-4.55-43.36 4.92-8.93 8-9.39 24.01 1.13 31.06q7.24 4.85 17.37 7.24c4.88 1.15 14.17 6.58 7 11.48m56.76 8.37c13.34 11.16 32.26 12.68 48.67 8.05a.88.88 0 0 0 .64-.85v-18.24a.44.44 0 0 0-.62-.4q-8.91 3.85-18.6 3.31c-25.61-1.43-28.07-34.45-2.45-38.53 7.23-1.16 14.49.55 21.3 3.09a.31.31 0 0 0 .42-.29l-.07-18.4a.62.61 8.2 0 0-.45-.59c-19.38-5.86-45-2.32-56.21 16.14-9.29 15.32-6.71 34.95 7.37 46.71" vector-effect="non-scaling-stroke"/><path stroke="#8ebfe1" d="M477.06 232.31a43.22 38.13 0 0 0-43.22-38.13 43.22 38.13 0 0 0-43.22 38.13 43.22 38.13 0 0 0 43.22 38.13 43.22 38.13 0 0 0 43.22-38.13" vector-effect="non-scaling-stroke"/><path stroke="#91c6e7" d="M203 196.36a.86.86 0 0 0-.86-.86h-18.78a.86.86 0 0 0-.86.86v72a.86.86 0 0 0 .86.86h18.78a.86.86 0 0 0 .86-.86v-72" vector-effect="non-scaling-stroke"/><path stroke="#8ebfe1" d="m508.21 260.25.16 1.71q.04.5-.04.99-.5 2.99-.04 5.93a.45.44 75.3 0 0 .59.35l.32-.11a.79.79 0 0 0 .54-.75l.04-5.08a.42.42 0 0 1 .81-.15l2.17 5.46a.9.9 0 0 0 1.65.04l2.51-5.58q.52-1.17.65.11c.19 1.95-.7 4.19.53 5.91a.67.66-60.7 0 0 1.2-.34c.12-1.52.99-10.7-1.83-9.46a1.32 1.31-89.2 0 0-.67.66l-2.65 5.89a.52.52 0 0 1-.96-.03l-2.15-5.66a1.18 1.16 87.3 0 0-.77-.71q-1.05-.3-2.02.11" vector-effect="non-scaling-stroke"/><path stroke="#93ceed" d="M508.25 259.54q-4.14-.85-9.38-.25a.58.58 0 0 0-.02 1.15l2.82.42a.52.51 3.8 0 1 .45.51l-.03 7.08a.76.75 85.8 0 0 .86.75l.45-.07a.71.7 85.8 0 0 .6-.7v-6.92a.63.63 0 0 1 .52-.62l3.69-.64" vector-effect="non-scaling-stroke"/><path stroke="#228ecf" d="m508.25 259.54-.04.71" vector-effect="non-scaling-stroke"/><path stroke="#8ebfe1" d="M455.12 232.374a21.28 19.27.2 0 0-21.213-19.344 21.28 19.27.2 0 0-21.347 19.196 21.28 19.27.2 0 0 21.213 19.344 21.28 19.27.2 0 0 21.347-19.196" vector-effect="non-scaling-stroke"/></g><path fill="#fff" d="M0 0h574v272.81q-.37.16-.75.16-286.63.17-573.25-.16V0Zm182.36 57.39a9.57 9.57 0 0 0-9.57-9.57h-1.22a9.57 9.57 0 0 0-9.57 9.57v96.48a9.57 9.57 0 0 0 9.57 9.57h1.22a9.57 9.57 0 0 0 9.57-9.57V57.39Zm224.64.23a9.84 9.84 0 0 0-9.84-9.84h-.82a9.84 9.84 0 0 0-9.84 9.84v96.02a9.84 9.84 0 0 0 9.84 9.84h.82a9.84 9.84 0 0 0 9.84-9.84V57.62ZM126.24 92.17a9.7 9.7 0 0 0-9.7-9.7h-1.1a9.7 9.7 0 0 0-9.7 9.7v43.32a9.7 9.7 0 0 0 9.7 9.7h1.1a9.7 9.7 0 0 0 9.7-9.7V92.17Zm112.26-.02a9.69 9.69 0 0 0-9.69-9.69h-1.12a9.69 9.69 0 0 0-9.69 9.69v43.34a9.69 9.69 0 0 0 9.69 9.69h1.12a9.69 9.69 0 0 0 9.69-9.69V92.15Zm112.202-.178a9.48 9.48 0 0 0-9.497-9.463l-1.38.002a9.48 9.48 0 0 0-9.463 9.497l.076 43.66a9.48 9.48 0 0 0 9.497 9.463l1.38-.002a9.48 9.48 0 0 0 9.463-9.497l-.076-43.66Zm112.488.168a9.63 9.63 0 0 0-9.63-9.63h-1.36a9.63 9.63 0 0 0-9.63 9.63v43.38a9.63 9.63 0 0 0 9.63 9.63h1.36a9.63 9.63 0 0 0 9.63-9.63V92.14ZM70.176 117.398a9.76 9.76 0 0 0-9.743-9.777l-1.1-.002a9.76 9.76 0 0 0-9.777 9.743l-.032 18.02a9.76 9.76 0 0 0 9.743 9.777l1.1.002a9.76 9.76 0 0 0 9.777-9.743l.032-18.02Zm224.314-.218a9.59 9.59 0 0 0-9.59-9.59h-1.04a9.59 9.59 0 0 0-9.59 9.59v18.44a9.59 9.59 0 0 0 9.59 9.59h1.04a9.59 9.59 0 0 0 9.59-9.59v-18.44Zm224.726.128a9.67 9.67 0 0 0-9.653-9.687l-1.08-.002a9.67 9.67 0 0 0-9.687 9.653l-.032 18.22a9.67 9.67 0 0 0 9.653 9.687l1.08.002a9.67 9.67 0 0 0 9.687-9.653l.032-18.22ZM153.27 248.32c-12.94 5.59-32.98 5.82-38.22-10.72q-1.76-5.56.17-11.11c5.73-16.42 25.64-15.55 38.53-10.17a.37.36-79.1 0 0 .5-.34v-18.44a.66.66 0 0 0-.47-.63c-16.38-4.73-36.28-3.34-49.2 7.91-20.26 17.63-15.42 49.02 8.65 60.51 12.64 6.03 26.76 6.12 40.13 2.61a1.19 1.19 0 0 0 .89-1.15v-17.83a.7.7 0 0 0-.98-.64Zm109.66 3.12c-7.42 5.07-22.58 2-31.66.17a.44.44 0 0 0-.52.43v15.58a.62.6-84.2 0 0 .48.6c13.89 2.89 31.11 3.84 43.97-3.01 9.96-5.31 14.69-17.62 9.64-27.84-5.28-10.68-18.38-12.78-28.32-16.05q-4.86-1.6-3.96-6.76a1.55 1.54-16.7 0 1 .46-.85c6.26-5.81 20.07-3.51 27.66-1.51a.45.44-82.5 0 0 .56-.43l.01-14.43a.62.62 0 0 0-.46-.6c-12.93-3.38-32.8-4.55-43.36 4.92-8.93 8-9.39 24.01 1.13 31.06q7.24 4.85 17.37 7.24c4.88 1.15 14.17 6.58 7 11.48Zm56.76 8.37c13.34 11.16 32.26 12.68 48.67 8.05a.88.88 0 0 0 .64-.85v-18.24a.44.44 0 0 0-.62-.4q-8.91 3.85-18.6 3.31c-25.61-1.43-28.07-34.45-2.45-38.53 7.23-1.16 14.49.55 21.3 3.09a.31.31 0 0 0 .42-.29l-.07-18.4a.62.61 8.2 0 0-.45-.59c-19.38-5.86-45-2.32-56.21 16.14-9.29 15.32-6.71 34.95 7.37 46.71Zm157.37-27.5a43.22 38.13 0 0 0-43.22-38.13 43.22 38.13 0 0 0-43.22 38.13 43.22 38.13 0 0 0 43.22 38.13 43.22 38.13 0 0 0 43.22-38.13ZM203 196.36a.86.86 0 0 0-.86-.86h-18.78a.86.86 0 0 0-.86.86v72a.86.86 0 0 0 .86.86h18.78a.86.86 0 0 0 .86-.86v-72Zm305.21 63.89.16 1.71q.04.5-.04.99-.5 2.99-.04 5.93a.45.44 75.3 0 0 .59.35l.32-.11a.79.79 0 0 0 .54-.75l.04-5.08a.42.42 0 0 1 .81-.15l2.17 5.46a.9.9 0 0 0 1.65.04l2.51-5.58q.52-1.17.65.11c.19 1.95-.7 4.19.53 5.91a.67.66-60.7 0 0 1.2-.34c.12-1.52.99-10.7-1.83-9.46a1.32 1.31-89.2 0 0-.67.66l-2.65 5.89a.52.52 0 0 1-.96-.03l-2.15-5.66a1.18 1.16 87.3 0 0-.77-.71q-1.05-.3-2.02.11-4.14-.85-9.38-.25a.58.58 0 0 0-.02 1.15l2.82.42a.52.51 3.8 0 1 .45.51l-.03 7.08a.76.75 85.8 0 0 .86.75l.45-.07a.71.7 85.8 0 0 .6-.7v-6.92a.63.63 0 0 1 .52-.62l3.69-.64Z"/><rect width="20.36" height="115.62" x="162" y="47.82" fill="#279dda" rx="9.57"/><rect width="20.5" height="115.7" x="386.5" y="47.78" fill="#228cce" rx="9.84"/><rect width="20.5" height="62.72" x="105.74" y="82.47" fill="#279dda" rx="9.7"/><rect width="20.5" height="62.72" x="218" y="82.46" fill="#279dda" rx="9.69"/><rect width="20.34" height="62.62" x="-10.17" y="-31.31" fill="#228cce" rx="9.48" transform="rotate(-.1 65384.325 -195075.277)"/><rect width="20.62" height="62.64" x="442.57" y="82.51" fill="#228cce" rx="9.63"/><rect width="20.62" height="37.54" x="-10.31" y="-18.77" fill="#279dda" rx="9.76" transform="rotate(.1 -72386.192 34354.71)"/><rect width="20.22" height="37.62" x="274.27" y="107.59" fill="#228cce" rx="9.59"/><rect width="20.42" height="37.56" x="-10.21" y="-18.78" fill="#1d7fc3" rx="9.67" transform="rotate(.1 -72167.352 291692.914)"/><path fill="#279dda" d="M115.05 237.6c5.24 16.54 25.28 16.31 38.22 10.72a.7.7 0 0 1 .98.64v17.83a1.19 1.19 0 0 1-.89 1.15c-13.37 3.51-27.49 3.42-40.13-2.61-24.07-11.49-28.91-42.88-8.65-60.51 12.92-11.25 32.82-12.64 49.2-7.91a.66.66 0 0 1 .47.63v18.44a.37.36-79.1 0 1-.5.34c-12.89-5.38-32.8-6.25-38.53 10.17q-1.93 5.55-.17 11.11Z"/><path fill="#228cce" d="M231.27 251.61c9.08 1.83 24.24 4.9 31.66-.17 7.17-4.9-2.12-10.33-7-11.48q-10.13-2.39-17.37-7.24c-10.52-7.05-10.06-23.06-1.13-31.06 10.56-9.47 30.43-8.3 43.36-4.92a.62.62 0 0 1 .46.6l-.01 14.43a.45.44-82.5 0 1-.56.43c-7.59-2-21.4-4.3-27.66 1.51a1.55 1.54-16.7 0 0-.46.85q-.9 5.16 3.96 6.76c9.94 3.27 23.04 5.37 28.32 16.05 5.05 10.22.32 22.53-9.64 27.84-12.86 6.85-30.08 5.9-43.97 3.01a.62.6-84.2 0 1-.48-.6v-15.58a.44.44 0 0 1 .52-.43Zm88.42 8.2c-14.08-11.76-16.66-31.39-7.37-46.71 11.21-18.46 36.83-22 56.21-16.14a.62.61 8.2 0 1 .45.59l.07 18.4a.31.31 0 0 1-.42.29c-6.81-2.54-14.07-4.25-21.3-3.09-25.62 4.08-23.16 37.1 2.45 38.53q9.69.54 18.6-3.31a.44.44 0 0 1 .62.4v18.24a.88.88 0 0 1-.64.85c-16.41 4.63-35.33 3.11-48.67-8.05Z"/><path fill="#1d7fc3" d="M477.06 232.31a43.22 38.13 0 0 1-43.22 38.13 43.22 38.13 0 0 1-43.22-38.13 43.22 38.13 0 0 1 43.22-38.13 43.22 38.13 0 0 1 43.22 38.13Zm-21.94.064a21.28 19.27.2 0 0-21.213-19.344 21.28 19.27.2 0 0-21.347 19.196 21.28 19.27.2 0 0 21.213 19.344 21.28 19.27.2 0 0 21.347-19.196Z"/><rect width="20.5" height="73.72" x="182.5" y="195.5" fill="#228cce" rx=".86"/><ellipse fill="#fff" rx="21.28" ry="19.27" transform="rotate(.2 -66332.06 124402.029)"/><path fill="#279dda" d="m508.25 259.54-.04.71-3.69.64a.63.63 0 0 0-.52.62v6.92a.71.7 85.8 0 1-.6.7l-.45.07a.76.75 85.8 0 1-.86-.75l.03-7.08a.52.51 3.8 0 0-.45-.51l-2.82-.42a.58.58 0 0 1 .02-1.15q5.24-.6 9.38.25Z"/><path fill="#1d7fc3" d="m508.21 260.25.04-.71q.97-.41 2.02-.11a1.18 1.16 87.3 0 1 .77.71l2.15 5.66a.52.52 0 0 0 .96.03l2.65-5.89a1.32 1.31-89.2 0 1 .67-.66c2.82-1.24 1.95 7.94 1.83 9.46a.67.66-60.7 0 1-1.2.34c-1.23-1.72-.34-3.96-.53-5.91q-.13-1.28-.65-.11l-2.51 5.58a.9.9 0 0 1-1.65-.04l-2.17-5.46a.42.42 0 0 0-.81.15l-.04 5.08a.79.79 0 0 1-.54.75l-.32.11a.45.44 75.3 0 1-.59-.35q-.46-2.94.04-5.93.08-.49.04-.99l-.16-1.71Z"/></svg>